<svg
  xmlns="http://www.w3.org/2000/svg"
  width="256"
  height="256"
  viewBox="0 0 256 256"
>
  <g>
    <!-- Yellow circle -->
    <path
      fill="#FFDE3D"
      d="M128 256c70.692 0 128-57.308 128-128S198.692 0 128 0 0 57.308 0 128s57.308 128 128 128"
      data-color="1"
    />
    
    <!-- First mask definition -->
    <mask
      id="be6d106c-703f-4e0c-9b1e-db8741120f6f_comp-m3srqln2_r_comp-m3rkyrjk4"
      x="53"
      y="37"
      width="165"
      height="174"
      maskUnits="userSpaceOnUse"
      style="mask-type:alpha"
      fill="none"
    >
      <path fill="#fff" d="M53.937 37.837h163.72v172.897H53.937z"/>
    </mask>

    <!-- Group clipped by the first mask -->
    <g mask="url(#be6d106c-703f-4e0c-9b1e-db8741120f6f_comp-m3srqln2_r_comp-m3rkyrjk4)">
      <path
        fill="#000"
        opacity=".1"
        fill-rule="evenodd"
        clip-rule="evenodd"
        d="M169.97 180.636q-6.907 11.167-16.071 18.471-9.167 7.304-20.062 10.089-10.9 2.787-23.197.523-12.302-2.265-25.19-10.296-13.068-8.145-20.544-18.205-7.477-10.061-9.822-21.101-2.348-11.04.109-22.524 2.454-11.486 9.36-22.652l47.688-77.105 27.546 17.167-47.03 76.041q-3.618 5.85-4.832 11.967-1.218 6.12-.108 11.843 1.104 5.726 4.527 10.68 3.415 4.953 8.892 8.365 5.47 3.41 11.325 4.234 5.848.824 11.454-.72 5.599-1.541 10.526-5.351 4.923-3.806 8.541-9.656l47.029-76.04 27.546 17.166z"
        data-color="2"
      />
    </g>

    <!-- Various semi-opaque paths -->
    <path
      fill="#000"
      fill-opacity=".3"
      fill-rule="evenodd"
      clip-rule="evenodd"
      d="M75.55 83.766h7.062q1.612 0 3.416-.116 1.803-.115 3.263-.693a5.66 5.66 0 0 0 2.418-1.811q.96-1.232.96-3.468 0-2.08-.844-3.314a5.66 5.66 0 0 0-2.15-1.888q-1.306-.655-2.994-.886a24 24 0 0 0-3.301-.232h-7.83zm-11.977-22.58h21.035q4.145 0 7.87.81 3.721.809 6.525 2.697 2.8 1.889 4.452 5.086 1.65 3.198 1.651 7.976 0 5.78-2.994 9.826t-8.752 5.124l13.819 23.042H92.822L81.46 93.938h-5.91v21.809H63.572z"
      data-color="2"
    />
    <path
      fill="#000"
      fill-opacity=".3"
      fill-rule="evenodd"
      clip-rule="evenodd"
      d="M58.2 142.717h13.664L85.3 178.475h.154l13.665-35.758h12.82l-22.416 54.561h-9.597z"
      data-color="2"
    />
    <path
      fill="#000"
      fill-opacity=".3"
      fill-rule="evenodd"
      clip-rule="evenodd"
      d="M156.086 169.998q0 3.853 1.19 7.051 1.19 3.2 3.416 5.548 2.227 2.352 5.336 3.661t6.948 1.31q3.839 0 6.947-1.31t5.336-3.661q2.226-2.349 3.416-5.548t1.19-7.051q0-3.776-1.19-7.013t-3.416-5.587-5.336-3.661q-3.108-1.31-6.947-1.31t-6.948 1.31q-3.109 1.311-5.336 3.661-2.226 2.351-3.416 5.587-1.19 3.237-1.19 7.013m-12.437 0q0-6.55 2.188-11.868 2.188-5.317 6.104-9.055t9.289-5.741q5.373-2.004 11.746-2.004 6.372 0 11.746 2.004 5.372 2.004 9.289 5.741 3.915 3.738 6.103 9.055t2.188 11.868-2.188 11.868q-2.188 5.316-6.103 9.055-3.917 3.737-9.289 5.741-5.374 2.003-11.746 2.003t-11.746-2.003q-5.374-2.004-9.289-5.741-3.916-3.738-6.104-9.055-2.187-5.317-2.188-11.868"
      data-color="2"
    />

    <!-- Second mask definition -->
    <mask
      id="3d051575-c73d-401d-af36-32189137ac20_comp-m3srqln2_r_comp-m3rkyrjk4"
      x="53"
      y="37"
      width="165"
      height="174"
      maskUnits="userSpaceOnUse"
      style="mask-type:alpha"
      fill="none"
    >
      <path fill="#fff" d="M53.937 210.734h163.72V37.837H53.937z"/>
    </mask>

    <!-- Group clipped by the second mask -->
    <g mask="url(#3d051575-c73d-401d-af36-32189137ac20_comp-m3srqln2_r_comp-m3rkyrjk4)">
      <path
        fill="#000"
        fill-opacity=".3"
        fill-rule="evenodd"
        clip-rule="evenodd"
        d="M147.437 72.341h49.08V61.187h-49.08z"
        data-color="2"
      />
      <path
        fill="#000"
        fill-opacity=".3"
        fill-rule="evenodd"
        clip-rule="evenodd"
        d="M147.437 93.55h49.08V82.396h-49.08z"
        data-color="2"
      />
      <path
        fill="#000"
        fill-opacity=".3"
        fill-rule="evenodd"
        clip-rule="evenodd"
        d="M147.437 114.759h49.08v-11.154h-49.08z"
        data-color="2"
      />
      <path
        fill="#000"
        fill-rule="evenodd"
        clip-rule="evenodd"
        d="M172.55 114.76h23.966v-11.155h-17.067z"
        data-color="2"
      />
      <path
        fill="#000"
        fill-rule="evenodd"
        clip-rule="evenodd"
        d="M184.721 143.334q-5.374-2.004-11.745-2.004-6.373 0-11.746 2.004-5.376 2.004-9.29 5.741a25 25 0 0 0-1.788 1.899l-4.041 6.534c-.092.208-.187.411-.274.622q-2.187 5.317-2.188 11.868 0 6.55 2.188 11.868 2.188 5.316 6.103 9.055a26.2 26.2 0 0 0 6.269 4.411c2.823-2.699 5.463-5.713 7.922-9.033l-.103-.041q-3.11-1.31-5.336-3.661-2.227-2.349-3.416-5.548t-1.19-7.051q0-3.776 1.19-7.013t3.416-5.587 5.336-3.661 6.948-1.31q3.837 0 6.947 1.31 2.723 1.148 4.77 3.095l6.316-10.213a27.8 27.8 0 0 0-6.288-3.285"
        data-color="2"
      />
      <path
        fill="#000"
        fill-rule="evenodd"
        clip-rule="evenodd"
        d="M79.041 195.063a89 89 0 0 0 3.114 2.215h7.364l10.062-24.487c-2.9-2.055-5.317-4.471-7.239-7.258a30 30 0 0 1-1.212-1.92l-5.679 14.861h-.154l-13.435-35.757H58.197z"
        data-color="2"
      />
      <path
        fill="#000"
        fill-rule="evenodd"
        clip-rule="evenodd"
        d="M75.549 115.747V97.164l-10.994 17.777c-.167.268-.327.537-.489.806z"
        data-color="2"
      />
      <path
        fill="#000"
        fill-rule="evenodd"
        clip-rule="evenodd"
        d="m102.217 115.747 2.518-4.071-11.377-18.97q5.758-1.08 8.752-5.126 2.994-4.045 2.994-9.825 0-4.778-1.65-7.976-1.652-3.197-4.453-5.086a17 17 0 0 0-2.512-1.389l-5.993 9.69c.507.375.954.827 1.327 1.37q.844 1.233.845 3.314 0 2.236-.96 3.467a5.65 5.65 0 0 1-2.418 1.812q-1.46.578-3.263.693a57 57 0 0 1-2.18.094L77.544 93.94h3.916l11.362 21.808z"
        data-color="2"
      />
      <path
        fill="#000"
        fill-rule="evenodd"
        clip-rule="evenodd"
        d="M185.667 93.55h10.849v-3.193l-6.405-3.992z"
        data-color="2"
      />
    </g>
  </g>
</svg>